# xmcd
#
# Track frame offsets:
#	150
#	13628
#	27931
#	42919
#	55241
#	65729
#	79352
#	97555
#	111433
#	123012
#	136372
#	151021
#	163584
#	171210
#	191688
#	200954
#	213141
#	228984
#	239707
#	251788
#	263687
#	280019
#	295217
#	306802
#	320589
#
# Disc length: 4426 seconds
#
# Revision: 1
# Processed by: cddbd v1.5PL3 Copyright (c) Steve Scherf et al.
# Submitted via: EasyCDDAExtractor 6.2.0.3
#
DISCID=66114819
DTITLE=Tião Carreiro and Pardinho - Só Pagodes
DYEAR=2003
DGENRE=Sertanejo
TTITLE0=Pagode Em Brasília
TTITLE1=Rei Do Pagode
TTITLE2=Nove E Nove
TTITLE3=Rancho Dos Ipês
TTITLE4=Linha De Frente
TTITLE5=Navalha Na Carne
TTITLE6=A Coisa Tá Feia
TTITLE7=O Mundo No Avesso
TTITLE8=A Magestade "O Pagode"
TTITLE9=Pagode Na Praça
TTITLE10=Tudo Certo
TTITLE11=Bandeira Branca
TTITLE12=Pagode
TTITLE13=Pagode Do Ala
TTITLE14=Começo Do Fim
TTITLE15=A Casa
TTITLE16=Faca Que Não Corta
TTITLE17=Falou E Disse
TTITLE18=Fim Da Picada
TTITLE19=Na Barba Do Leão
TTITLE20=Azulão Do Reino Encantado
TTITLE21=Uma Coisa Puxa A Outra
TTITLE22=Pagode Do Pai Tomé
TTITLE23=A Coisa Ficou Bonita
TTITLE24=Osso Duro De Roer
EXTD=
EXTT0=
EXTT1=
EXTT2=
EXTT3=
EXTT4=
EXTT5=
EXTT6=
EXTT7=
EXTT8=
EXTT9=
EXTT10=
EXTT11=
EXTT12=
EXTT13=
EXTT14=
EXTT15=
EXTT16=
EXTT17=
EXTT18=
EXTT19=
EXTT20=
EXTT21=
EXTT22=
EXTT23=
EXTT24=
PLAYORDER=
